<?xml version="1.0" encoding="utf-8"?>
<!-- Generator: Adobe Illustrator 25.4.1, SVG Export Plug-In . SVG Version: 6.00 Build 0)  -->
<svg version="1.1" id="Capa_1" xmlns="http://www.w3.org/2000/svg" xmlns:xlink="http://www.w3.org/1999/xlink" x="0px" y="0px"
	 viewBox="0 0 589.19 661.9" style="enable-background:new 0 0 589.19 661.9;" xml:space="preserve">
<style type="text/css">
	.st0{fill:#F2EC8B;}
	.st1{fill:#59372A;}
	.st2{fill:#DADADA;stroke:#FFFFFF;stroke-width:6;stroke-miterlimit:10;}
</style>
<g>
	<path class="st0" d="M73.95,217.41c-0.22,0.22-0.43,0.43-0.65,0.65c-0.23,0.23-0.46,0.46-0.68,0.68c-0.22,0.22-0.43,0.43-0.65,0.65
		c-0.48,0.71-0.96,1.42-1.45,2.13c-0.2,0.2-0.41,0.41-0.61,0.61c-0.48,0.71-0.96,1.42-1.45,2.13c-0.2,0.2-0.41,0.41-0.61,0.61
		c-0.88,0.42-0.89,1.43-1.41,2.09c-1.14,0.87-1.31,2.32-2.05,3.43c-1.14,0.87-1.31,2.32-2.05,3.43c-5.5,8.75-8.65,18.43-11.13,28.36
		c-2.52,10.1-2.59,20.45-1.94,30.69c0.68,10.77,3.46,21.21,7.76,31.16c1.37,3.18,2.38,6.56,4.64,9.3c0.97,1.57,1.33,3.48,2.74,4.8
		c0.46,0.69,0.91,1.37,1.37,2.06c0.46,0.69,0.91,1.37,1.37,2.06c0.51,0.67,0.53,1.67,1.41,2.09c0.2,0.2,0.41,0.41,0.61,0.61
		c0.48,0.71,0.96,1.42,1.45,2.13c0.2,0.2,0.41,0.41,0.61,0.61c0.48,0.71,0.96,1.42,1.45,2.13c0.22,0.22,0.43,0.43,0.65,0.65
		c0.23,0.23,0.46,0.46,0.68,0.68c0.23,0.23,0.46,0.46,0.68,0.69c0.23,0.23,0.46,0.46,0.68,0.68c0.21,0.22,0.43,0.43,0.64,0.65
		c0.48,0.71,0.96,1.42,1.45,2.13c0.22,0.22,0.43,0.43,0.65,0.65c0.23,0.23,0.46,0.46,0.68,0.68c0.23,0.23,0.46,0.46,0.68,0.69
		c0.23,0.23,0.46,0.46,0.68,0.69c0.23,0.23,0.46,0.46,0.68,0.69c0.22,0.22,0.43,0.43,0.65,0.65c0.71,0.48,1.42,0.96,2.13,1.45
		c0.22,0.21,0.43,0.43,0.65,0.64c0.23,0.23,0.46,0.46,0.68,0.68c0.23,0.23,0.46,0.46,0.68,0.69c0.22,0.22,0.43,0.43,0.65,0.65
		c0.71,0.48,1.42,0.96,2.13,1.45c0.22,0.21,0.43,0.43,0.65,0.64c0.22,0.22,0.43,0.43,0.65,0.65c0.42,0.88,1.43,0.89,2.09,1.41
		c0.7,0.47,1.4,0.94,2.09,1.4c0.2,0.2,0.41,0.41,0.61,0.61c0.9,0.64,1.8,1.27,2.7,1.91c-11.55-1.65-22.3-5.67-32.62-10.99
		c-1.32-1.41-3.23-1.76-4.79-2.74c-0.68-0.46-1.37-0.91-2.05-1.37c-0.68-0.46-1.37-0.91-2.05-1.37c-0.68-0.46-1.37-0.91-2.05-1.37
		c-0.7-0.47-1.4-0.94-2.09-1.4c-0.22-0.21-0.43-0.43-0.65-0.64c-0.22-0.22-0.43-0.43-0.65-0.65c-0.71-0.48-1.42-0.96-2.13-1.45
		c-0.22-0.21-0.43-0.43-0.65-0.64c-0.22-0.22-0.43-0.43-0.65-0.65c-0.71-0.48-1.42-0.96-2.13-1.45c-0.22-0.21-0.43-0.43-0.65-0.64
		c-0.23-0.23-0.46-0.46-0.68-0.68c-0.23-0.23-0.46-0.46-0.68-0.69c-0.23-0.23-0.46-0.46-0.68-0.68c-0.23-0.23-0.46-0.46-0.68-0.69
		c-0.23-0.23-0.46-0.46-0.68-0.69c-0.23-0.23-0.46-0.46-0.68-0.69c-0.23-0.23-0.46-0.46-0.68-0.69c-0.23-0.23-0.46-0.46-0.68-0.69
		c-0.23-0.23-0.46-0.46-0.68-0.69c-0.23-0.23-0.46-0.46-0.68-0.69c-0.23-0.23-0.46-0.46-0.68-0.68c-0.23-0.23-0.46-0.46-0.68-0.69
		c-0.21-0.22-0.43-0.43-0.64-0.65c-0.48-0.71-0.96-1.42-1.45-2.13c-0.22-0.22-0.43-0.43-0.65-0.65c-0.23-0.23-0.46-0.46-0.68-0.68
		c-0.21-0.22-0.43-0.43-0.64-0.65c-0.48-0.71-0.97-1.42-1.45-2.13c-0.2-0.2-0.41-0.41-0.61-0.61c-0.47-0.7-0.94-1.4-1.4-2.09
		c-0.51-0.67-0.53-1.67-1.41-2.09c-0.2-0.2-0.4-0.41-0.61-0.61c-0.78-1.1-0.92-2.59-2.09-3.46c-0.73-1.11-0.91-2.56-2.05-3.43
		c-5.78-10.88-10.24-22.24-12.44-34.43c-1.98-10.98-2.19-21.97-1.17-33.08c1.44-15.78,6.9-30.16,14.3-43.96
		c1.14-0.87,1.31-2.32,2.05-3.42c0.46-0.68,0.91-1.37,1.37-2.05c0.47-0.7,0.93-1.4,1.4-2.09c0.2-0.2,0.41-0.41,0.61-0.61
		c0.48-0.71,0.96-1.42,1.45-2.13c0.2-0.2,0.41-0.41,0.61-0.61c0.48-0.71,0.96-1.42,1.45-2.13c0.21-0.22,0.43-0.43,0.64-0.65
		c0.22-0.22,0.43-0.43,0.65-0.65c0.48-0.71,0.96-1.42,1.45-2.13c0.21-0.22,0.43-0.43,0.64-0.65c0.23-0.23,0.46-0.46,0.68-0.68
		c0.23-0.23,0.46-0.46,0.68-0.69c0.23-0.23,0.46-0.46,0.68-0.69c0.23-0.23,0.46-0.46,0.68-0.69c0.23-0.23,0.46-0.46,0.68-0.69
		c0.23-0.23,0.46-0.46,0.68-0.69c0.23-0.23,0.46-0.46,0.68-0.69c0.23-0.23,0.46-0.46,0.68-0.69c0.23-0.23,0.46-0.46,0.68-0.69
		c0.23-0.23,0.46-0.46,0.68-0.69c0.23-0.23,0.46-0.46,0.68-0.69c0.23-0.23,0.46-0.46,0.68-0.69c0.23-0.23,0.46-0.46,0.68-0.69
		c0.23-0.23,0.46-0.46,0.68-0.68c0.22-0.21,0.43-0.43,0.65-0.64c0.71-0.48,1.42-0.97,2.13-1.45c0.22-0.22,0.43-0.43,0.65-0.65
		c0.23-0.23,0.46-0.46,0.68-0.68c0.22-0.21,0.43-0.43,0.65-0.64c0.7-0.47,1.4-0.94,2.09-1.4c0.67-0.51,1.67-0.53,2.09-1.41
		c0.2-0.2,0.41-0.41,0.61-0.61c0.7-0.47,1.4-0.94,2.09-1.4c0.68-0.46,1.37-0.91,2.05-1.37c1.11-0.73,2.56-0.91,3.42-2.05
		c11.25-6.06,22.95-10.81,35.63-13.08c11.11-1.99,22.19-2.23,33.41-1.2c15.19,1.39,29.06,6.61,42.41,13.6
		c0.87,1.15,2.32,1.31,3.42,2.06c0.87,1.17,2.36,1.3,3.46,2.09c0.2,0.2,0.41,0.41,0.61,0.61c0.42,0.88,1.43,0.89,2.09,1.41
		c0.7,0.47,1.4,0.94,2.09,1.4c0.2,0.2,0.41,0.41,0.61,0.61c0.71,0.48,1.42,0.96,2.13,1.45c0.22,0.21,0.43,0.43,0.65,0.64
		c0.23,0.23,0.46,0.46,0.68,0.68c0.22,0.22,0.43,0.43,0.65,0.65c0.71,0.48,1.42,0.96,2.13,1.45c0.22,0.21,0.43,0.43,0.65,0.64
		c0.23,0.23,0.46,0.46,0.68,0.69c0.23,0.23,0.46,0.46,0.68,0.69c0.23,0.23,0.46,0.46,0.68,0.69c0.23,0.23,0.46,0.46,0.68,0.69
		c0.23,0.23,0.46,0.46,0.68,0.69c0.23,0.23,0.46,0.46,0.68,0.69c0.23,0.23,0.46,0.46,0.68,0.69c0.23,0.23,0.46,0.46,0.68,0.69
		c0.23,0.23,0.46,0.46,0.68,0.69c0.23,0.23,0.46,0.46,0.68,0.69c0.23,0.23,0.46,0.46,0.68,0.69c0.23,0.23,0.46,0.46,0.68,0.68
		c0.21,0.22,0.43,0.43,0.64,0.65c0.47,0.7,0.94,1.4,1.41,2.1c0.75,0.85,1.5,1.7,2.84,3.23c-4.93-2.35-8.93-4.65-13.18-6.44
		c-9.38-3.95-19.06-6.43-29.22-7.56c-21.57-2.39-41.64,2.12-60.68,12.12c-0.19,0.1-0.3,0.34-0.45,0.51
		c-1.11,0.73-2.56,0.91-3.42,2.06c-0.68,0.46-1.37,0.91-2.05,1.37c-1.12,0.75-2.6,0.91-3.46,2.1c-0.2,0.2-0.41,0.41-0.61,0.61
		c-0.71,0.48-1.42,0.97-2.13,1.45c-0.2,0.2-0.41,0.41-0.61,0.61c-0.71,0.48-1.42,0.96-2.13,1.45c-0.22,0.22-0.43,0.43-0.65,0.65
		c-0.23,0.23-0.46,0.46-0.68,0.68c-0.23,0.23-0.46,0.46-0.68,0.68c-0.22,0.21-0.43,0.43-0.65,0.64c-0.71,0.48-1.42,0.97-2.13,1.45
		c-0.22,0.22-0.43,0.43-0.65,0.65c-0.23,0.23-0.46,0.46-0.68,0.68c-0.23,0.23-0.46,0.46-0.68,0.69c-0.23,0.23-0.46,0.46-0.68,0.69
		s-0.46,0.46-0.68,0.69c-0.23,0.23-0.46,0.46-0.68,0.69c-0.23,0.23-0.46,0.46-0.68,0.69c-0.23,0.23-0.46,0.46-0.68,0.69
		c-0.23,0.23-0.46,0.46-0.68,0.69c-0.23,0.23-0.46,0.46-0.68,0.68c-0.22,0.22-0.43,0.43-0.65,0.65
		C74.91,215.99,74.43,216.7,73.95,217.41z"/>
	<path class="st1" d="M367.82,125.28c8.81-10.31,17.51-20.5,26.21-30.69c1.47-1.72,3.14-3.29,4.37-5.16
		c1.26-1.93,2.21-1.39,3.45-0.15c4.17,4.14,6.82,9.37,10.07,14.16c15.87,23.34,30.55,47.43,45.06,71.62
		c5.53,9.22,10.58,18.71,15.96,28.02c1.35,2.34-0.07,2.42-1.61,2.24c-3.99-0.47-7.95-1.12-11.93-1.68
		c-4.11-0.58-8.21-1.17-12.33-1.68c-1.62-0.2-2.15,0.81-2.26,2.29c-0.66,8.88-1.29,17.76-2.06,26.63
		c-0.96,10.98-2.02,21.96-3.13,32.92c-0.19,1.84,0.77,2.1,2.12,2.12c6.43,0.07,12.68,1.77,19.09,2.1c1.77,0.09,2.8,0.66,2.59,3.11
		c-0.91,10.75-2.28,21.45-3.49,32.16c-1.07,9.5-1.87,19.03-2.78,28.54c-0.02,0.23,0.01,0.46-0.02,0.68
		c-0.62,4.2,0.71,5.57,5.08,5.34c1.02-0.05,1.32-0.43,1.42-1.41c0.64-6.71,1.26-13.43,2.06-20.12c1.04-8.68,2.3-17.33,3.33-26.01
		c0.82-6.92,1.46-13.86,2.1-20.81c0.21-2.24,0.75-4.42,0.82-6.7c0.06-1.87-0.52-2.46-2.14-2.66c-5.22-0.67-10.43-1.45-15.66-2.03
		c-2.65-0.29-2.56-1.08-0.99-2.84c4.89-5.47,9.65-11.06,14.54-16.53c12.51-13.97,25.42-27.55,38.62-40.88
		c3.18-3.21,6.33-6.5,9.35-9.88c1.77-1.99,2.67-1.6,3.92,0.57c5.49,9.55,9.99,19.61,14.99,29.41c8.52,16.68,16.23,33.74,24,50.78
		c0.88,1.93,1.86,3.83,2.61,5.81c0.23,0.62,1.21,1.18,0.42,2.11c-0.75,0.89-1.72,0.76-2.51,0.51c-7.03-2.21-14.38-3.07-21.45-5.05
		c-2.26-0.63-2.77,0.45-3.01,1.85c-1.26,7.39-2.33,14.81-3.54,22.2c-1.28,7.83-2.89,15.61-3.91,23.47
		c-0.99,7.67-2.59,15.23-3.57,22.89c-0.25,1.95-1.89,4.3-0.29,5.79c1.19,1.1,3.58,0.87,5.42,1.28c3.8,0.86,7.58,1.85,11.4,2.59
		c1.87,0.36,2.3,1.1,1.96,2.95c-1.78,9.66-3.44,19.34-5.14,29.01c-1.73,9.79-3.46,19.58-5.19,29.37c-1.4,7.92-2.78,15.84-4.23,23.75
		c-1.75,9.55-3.6,19.09-5.34,28.64c-1,5.5-1.83,11.02-2.77,16.53c-0.34,2.02-1.38,2.52-3.17,1.39
		c-12.98-8.15-26.88-14.18-41.78-17.79c-7.94-1.92-16.01-3.08-24.16-3.95c-7.17-0.77-14.3-0.45-21.44-0.5
		c-7.21-0.06-14.33,1.23-21.44,2.29c-1.65,0.25-1.89-0.12-2.08-1.47c-2.75-19.1-11.95-34.75-26.39-47.19
		c-11.39-9.8-24.74-15.63-39.7-18.19c-17.71-3.03-34.56-0.53-50.36,7.38c-22.02,11.02-35.87,28.99-41.89,52.91
		c-0.49,1.95-0.77,3.99-0.79,6c-0.02,2.14-1.09,2.63-2.82,2.26c-7.76-1.63-15.62-2.35-23.51-1.91c-5.46,0.31-10.98,0.49-16.35,1.84
		c-1.58,0.4-2.79,0.28-3.01-1.97c-0.79-8.38-1.75-16.75-2.71-25.12c-0.27-2.35-0.8-4.65-0.71-7.06c0.08-2.2-1.83-1.39-2.78-1.27
		c-6.21,0.81-12.42,1.71-18.6,2.76c-8.8,1.49-17.58,3.13-26.37,4.71c-0.11,0.02-0.23-0.01-0.34,0.01c-6.79,1.07-6.54,1.02-5.19,7.95
		c1.5,7.68,2.53,15.45,3.7,23.19c1,6.64,1.71,13.34,2.96,19.93c0.51,2.67-0.74,3.44-2.5,2.93c-5.16-1.49-10.48-1.31-15.68-1.57
		c-3.4-0.17-7.09-0.35-10.42,0.48c-2.82,0.7-3.16-0.77-3.46-2.5c-2.15-12.2-4.4-24.39-6.78-36.55c-2.83-14.47-5.03-29.06-7.72-43.56
		c-1.16-6.26-2.28-12.53-3.56-18.75c-0.51-2.49,0.67-2.91,2.02-3.21c9.91-2.18,19.84-4.28,29.8-6.22c2.48-0.48,4.09-0.61,3.41-4.05
		c-1.66-8.44-3.03-16.96-4.08-25.49c-0.63-5.12-1.64-10.18-2.18-15.31c-0.36-3.38-1.06-3.86-4.27-3.17c-7.3,1.56-14.62,3-21.93,4.52
		c-2.2,0.46-3.29,0.38-2.03-2.38c2.68-5.9,5.01-11.95,7.64-17.88c11.38-25.64,23.43-50.96,36.24-75.91
		c2.01-3.91,2.09-4.05,4.89-0.96c10.18,11.22,20.67,22.18,30.45,33.77c7.13,8.45,14.44,16.75,21.63,25.14
		c2.31,2.7,4.51,5.5,7.33,7.97c-0.55-5.95-0.95-11.92-1.73-17.85c-0.35-2.68-0.33-5.39-0.59-8.06c-0.4-4.14-1.03-8.31-0.96-12.51
		c0.03-1.54,0.49-2.15,2.13-2.35c6.92-0.85,13.82-1.9,20.81-1.99c2.73-0.04,4.17-0.57,3.9-4.02c-0.94-11.94-1.28-23.93-2.24-35.87
		c-0.5-6.3-0.84-12.61-1.33-18.9c-0.84-10.81-1.57-21.63-2.11-32.46c-0.33-6.53-0.73-13.09-1.46-19.57
		c-0.49-4.37,0.21-8.8-1.02-13.12c-0.41-1.42-0.83-1.88-2.21-1.7c-9.03,1.2-18.1,1.97-27.17,2.76c-4.66,0.41-9.28,1.33-13.93,1.93
		c-0.95,0.12-2.18,0.59-2.86-0.4c-0.77-1.13,0.39-2.09,0.88-2.89c5.14-8.4,10.44-16.71,15.62-25.09
		c8.6-13.9,17.53-27.59,26.74-41.09c14.39-21.11,29.13-41.97,44.65-62.27c1.09-1.42,1.94-3.03,3.11-4.37
		c1.33-1.54,2.67-1.98,4.38-0.05c10.43,11.7,20.37,23.79,30.38,35.85c15.51,18.67,30.22,37.96,44.8,57.34
		C355.53,107.76,361.56,116.53,367.82,125.28z M462.74,357.71c-0.9,8.34-1.89,17.66-3.02,27.96c-0.63,5.73-1.26,11.46-1.94,17.18
		c-0.17,1.39,0.07,2.25,1.72,2.34c6.34,0.33,12.55,1.66,18.8,2.61c9.06,1.38,18.05,3.27,27.03,5.11c1.31,0.27,1.27-0.01,1.44-1.02
		c0.94-5.74,2-11.46,2.98-17.2c1.47-8.65,2.87-17.31,4.38-25.95c0.26-1.51,0.12-3.26-1.64-3.57c-5.72-1.01-11.39-2.25-17.11-3.26
		c-6.54-1.16-13.11-1.19-19.68-2.23C471.49,359.01,467.27,358.39,462.74,357.71z M372.84,346.22c-0.8,2.7,0.78,3.23,3.97,3.41
		c6.52,0.38,13.04,0.94,19.57,1.38c3.02,0.21,6.07,0.35,9.09,0.67c5.92,0.63,11.83,1.3,17.74,1.92c1,0.1,1.94,0.2,2.08-1.42
		c0.59-7.17,1.58-14.32,1.95-21.49c0.34-6.65,0.9-13.33,1.73-19.88c0.56-4.39-1.68-3.91-3.88-4c-3.5-0.14-7-0.53-10.45-0.89
		c-11.09-1.18-22.2-2.05-33.34-2.59c-1.91-0.09-4.3-0.86-5.59-0.32c-1.86,0.79-0.25,3.66-0.89,5.55c-0.22,0.63-0.52,1.29-0.51,1.94
		C374.32,322.17,373.69,333.82,372.84,346.22z M326.33,226.83c0,9.81,0.06,19.61-0.05,29.42c-0.02,2.15,0.44,3,2.78,2.89
		c4.09-0.2,8.21-0.06,12.31-0.06c4.76,0,4.95-0.18,5.12-5.07c0.03-0.8-0.02-1.6,0.01-2.39c0.36-10.56-0.4-21.11,0.55-31.69
		c0.67-7.46,0.08-15.04,0.17-22.56c0.02-1.76-0.44-2.37-2.28-2.33c-5.24,0.12-10.49,0.18-15.73-0.02c-2.52-0.1-2.96,0.8-2.93,3.09
		C326.4,207.67,326.33,217.25,326.33,226.83z M313.73,350.87c4.9,0,9.81-0.13,14.7,0.05c2.34,0.09,3.1-0.49,3.06-2.96
		c-0.16-8.66-0.16-17.33,0-25.99c0.04-2.45-0.68-3.03-3.04-2.97c-10.21,0.24-20.43-0.28-30.64,0.66c-2.07,0.19-2.35,0.88-2.33,2.64
		c0.09,8.85-0.1,17.7,0.66,26.54c0.14,1.68,0.65,2.08,2.21,2.06C303.48,350.82,308.6,350.87,313.73,350.87z M208.29,318.59
		c-5.79,0.63-11.6,1.19-17.38,1.92c-2.72,0.34-2.38,2.47-2.15,4.41c0.88,7.46,1.81,14.91,2.63,22.37
		c0.76,6.92,1.41,13.85,2.05,20.79c0.1,1.08,0.56,1.4,1.52,1.23c5.41-0.99,10.85-1.63,16.33-2.07c2.34-0.19,3.29-1.47,3.02-4.02
		c-1.03-9.72-1.85-19.47-2.75-29.2c-0.45-4.81-0.95-9.62-1.35-14.43C210.09,318.12,209.13,318.43,208.29,318.59z M397.01,212.2
		c-5.47,0-4.94,0.09-5.75,4.71c-0.94,5.37-1.14,9.3-1.18,15.68c-0.01,1.64-0.4,3.25-1.06,4.75c-0.4,0.9-0.38,1.41,1.32,1.35
		c2.46-0.08,7.87-0.11,10.38,0.21c6.59,0.86,13.25,1.17,19.88,1.67c0.87,0.06,1.84,0.23,1.93-1.22c0.12-1.9,0.61-3.79,0.63-5.68
		c0.07-5.65,0.58-11.26,1.34-16.85c0.15-1.09,0.62-2.46-1.55-2.6C414.08,213.62,405.21,212.85,397.01,212.2z M327.02,177.1
		c11.44-14.21,22.3-28.54,33.99-43.01c-11.09,0.04-21.62,0.16-32.12-0.67c-1.19-0.1-1.9,0.17-1.89,1.63
		C327.04,149.07,327.02,163.09,327.02,177.1z M288.28,210.36c0-2.63-0.14-5.26,0.04-7.87c0.15-2.11-0.53-2.63-2.64-2.69
		c-7.51-0.22-14.96,1.24-22.46,0.74c-1.5-0.1-1.92,0.54-1.98,1.99c-0.25,6.03,0.46,12.01,0.69,18.02c0.06,1.56,0.91,1.44,1.99,1.57
		c3.21,0.37,6.26-0.9,9.45-0.75c3.65,0.17,7.3,0.08,10.96,0.02c2.68-0.04,4.46-0.88,4.01-4.18
		C288.03,214.96,288.28,212.65,288.28,210.36z"/>
	<path class="st2" d="M336.13,599.26c0.23-0.23,0.45-0.45,0.68-0.68c0.23-0.23,0.45-0.45,0.68-0.68s0.45-0.45,0.68-0.68
		s0.45-0.45,0.68-0.68c0.23-0.23,0.45-0.45,0.68-0.68c0.23-0.23,0.45-0.45,0.68-0.68c0.21-0.21,0.43-0.43,0.64-0.64
		c0.48-0.7,0.95-1.4,1.43-2.11c0.21-0.21,0.42-0.43,0.64-0.64c0.21-0.21,0.43-0.43,0.64-0.64c0.87-0.42,0.88-1.41,1.4-2.07
		c0.45-0.68,0.9-1.35,1.35-2.03c5.88-9.3,8.22-19.3,6.4-30.27c-0.86-5.2-2.07-10.19-5.06-14.61c-0.72-1.1-0.9-2.53-2.03-3.39
		c-0.45-0.68-0.9-1.35-1.35-2.03c-0.5-0.67-0.53-1.65-1.4-2.07c-0.21-0.21-0.43-0.43-0.64-0.64c-0.23-0.23-0.45-0.45-0.68-0.68
		c-0.23-0.23-0.45-0.45-0.68-0.68c-0.21-0.21-0.42-0.43-0.64-0.64c-0.48-0.7-0.95-1.4-1.43-2.11c-0.21-0.21-0.43-0.43-0.64-0.64
		c-0.23-0.23-0.45-0.45-0.68-0.68c-0.21-0.21-0.43-0.43-0.64-0.64c-0.7-0.48-1.4-0.95-2.11-1.43c-0.21-0.21-0.43-0.42-0.64-0.64
		c-0.23-0.23-0.45-0.45-0.68-0.68c-0.21-0.21-0.43-0.43-0.64-0.64c-0.7-0.48-1.4-0.95-2.11-1.43c-0.2-0.2-0.4-0.4-0.6-0.6
		c-0.42-0.87-1.41-0.88-2.07-1.4c-0.86-1.13-2.29-1.3-3.38-2.03c-4.44-1.72-5.76-4.89-5.36-9.58c0.25-2.87-0.62-5.96-1.53-8.78
		c-0.93-2.88,0.4-3.16,2.53-2.9c8.02,0.97,16.11,1.62,23.82,4.24c1.17,0.4,2.1,0.78,2.92-0.44c0.21-0.21,0.43-0.43,0.64-0.64
		c0.21-0.21,0.43-0.43,0.64-0.64c0.48-0.7,0.95-1.4,1.43-2.11c0.21-0.21,0.42-0.43,0.64-0.64c0.23-0.23,0.45-0.45,0.68-0.68
		c0.23-0.23,0.45-0.45,0.68-0.68c0.21-0.21,0.43-0.43,0.64-0.64c0.48-0.7,0.95-1.4,1.43-2.11c0.21-0.21,0.42-0.43,0.64-0.64
		c0.23-0.23,0.45-0.45,0.68-0.68c0.21-0.21,0.43-0.42,0.64-0.64c0.7-0.48,1.4-0.95,2.11-1.43c0.21-0.21,0.43-0.43,0.64-0.64
		c0.23-0.23,0.45-0.45,0.68-0.68c0.23-0.23,0.45-0.45,0.68-0.68c0.21-0.21,0.43-0.42,0.64-0.64c0.7-0.48,1.4-0.95,2.11-1.43
		c0.2-0.2,0.4-0.4,0.6-0.6c0.7-0.48,1.4-0.95,2.11-1.43c0.2-0.2,0.4-0.4,0.6-0.6c1.09-0.77,2.56-0.91,3.42-2.07
		c0.68-0.45,1.35-0.9,2.03-1.35c10.45-5.54,21.16-10.43,32.78-12.97c6.94-1.52,13.93-2.66,21.05-3.24
		c5.28-0.43,10.53-0.57,15.78-0.47c16.94,0.31,33.31,3.52,49,10.07c3.82,1.59,7.46,3.5,11.18,5.27c0.86,1.13,2.29,1.3,3.38,2.03
		c0.68,0.45,1.35,0.9,2.03,1.35c0.68,0.45,1.35,0.9,2.03,1.35c0.68,0.45,1.35,0.9,2.03,1.35c0.69,0.46,1.38,0.92,2.07,1.39
		c0.21,0.21,0.43,0.42,0.64,0.64c0.21,0.21,0.43,0.43,0.64,0.64c0.7,0.48,1.4,0.95,2.11,1.43c0.21,0.21,0.43,0.42,0.64,0.64
		c0.23,0.23,0.45,0.45,0.68,0.68c0.23,0.23,0.45,0.45,0.68,0.68c0.23,0.23,0.45,0.45,0.68,0.68c0.23,0.23,0.45,0.45,0.68,0.68
		s0.45,0.45,0.68,0.68c0.23,0.23,0.45,0.45,0.68,0.68c0.23,0.23,0.45,0.45,0.68,0.68c0.23,0.23,0.45,0.45,0.68,0.68
		c0.23,0.23,0.45,0.45,0.68,0.68c0.21,0.21,0.42,0.43,0.64,0.64c0.48,0.7,0.95,1.4,1.43,2.11c0.21,0.21,0.43,0.43,0.64,0.64
		c0.21,0.21,0.42,0.43,0.64,0.64c0.46,0.69,0.93,1.38,1.39,2.07c0.45,0.68,0.9,1.35,1.35,2.03c0.45,0.68,0.9,1.35,1.35,2.03
		c4.87,8.96,7.79,18.41,7.26,28.75c-0.22,4.37-1.2,8.57-2.7,12.63c-0.93,2.5-0.16,3.54,2.28,4.23c6.11,1.73,11.91,4.29,17.54,7.21
		c0.86,1.13,2.29,1.3,3.38,2.03c0.68,0.45,1.35,0.9,2.03,1.35c0.69,0.46,1.38,0.92,2.07,1.39c0.2,0.2,0.4,0.4,0.6,0.6
		c0.7,0.48,1.4,0.95,2.11,1.43c0.21,0.21,0.43,0.42,0.64,0.64c0.23,0.23,0.45,0.45,0.68,0.68c0.23,0.23,0.45,0.45,0.68,0.68
		c0.23,0.23,0.45,0.45,0.68,0.68c0.23,0.23,0.45,0.45,0.68,0.68s0.45,0.45,0.68,0.68s0.45,0.45,0.68,0.68
		c0.23,0.23,0.45,0.45,0.68,0.68s0.45,0.45,0.68,0.68c0.23,0.23,0.45,0.45,0.68,0.68c0.23,0.23,0.45,0.45,0.68,0.68
		c0.23,0.23,0.45,0.45,0.68,0.68c0.21,0.21,0.42,0.43,0.64,0.64c0.46,0.69,0.93,1.38,1.39,2.07c0.45,0.68,0.9,1.35,1.35,2.03
		c0.45,0.68,0.9,1.35,1.35,2.03c7.23,13.71,7.23,27.41-0.01,41.12c-0.45,0.68-0.9,1.35-1.35,2.03c-0.45,0.68-0.9,1.35-1.35,2.03
		c-0.46,0.69-0.92,1.38-1.39,2.07c-0.21,0.21-0.42,0.43-0.64,0.64c-0.23,0.23-0.45,0.45-0.68,0.68c-0.23,0.23-0.45,0.45-0.68,0.68
		c-0.21,0.21-0.43,0.43-0.64,0.64c-0.93,0.93-1.85,1.85-2.78,2.78c-0.21,0.21-0.43,0.43-0.64,0.64c-0.23,0.23-0.45,0.45-0.68,0.68
		c-0.23,0.23-0.45,0.45-0.68,0.68c-0.23,0.23-0.45,0.45-0.68,0.68c-0.21,0.21-0.43,0.42-0.64,0.64c-0.7,0.48-1.4,0.95-2.11,1.43
		c-0.2,0.2-0.4,0.4-0.6,0.6c-0.69,0.46-1.38,0.93-2.07,1.39c-0.68,0.45-1.35,0.9-2.03,1.35c-1.1,0.72-2.53,0.9-3.38,2.03
		c-10.43,5.79-21.75,8.96-33.36,11.18c-2.94,0.56-6,0.78-9,0.78c-80.87,0.04-161.73,0.05-242.6,0.01
		c-14.15-0.01-27.54-3.43-40.28-9.51c-2.12-1.01-4.2-2.1-6.3-3.15c-0.86-1.13-2.29-1.3-3.38-2.03c-0.69-0.46-1.38-0.92-2.07-1.39
		c-0.2-0.2-0.4-0.4-0.6-0.6c-0.7-0.48-1.4-0.95-2.11-1.43c-0.21-0.21-0.43-0.42-0.64-0.64c-0.21-0.21-0.43-0.43-0.64-0.64
		c-0.7-0.48-1.4-0.95-2.11-1.43c-0.21-0.21-0.43-0.42-0.64-0.64c-0.23-0.23-0.45-0.45-0.68-0.68c-0.23-0.23-0.45-0.45-0.68-0.68
		c-0.23-0.23-0.45-0.45-0.68-0.68c-0.23-0.23-0.45-0.45-0.68-0.68c-0.23-0.23-0.45-0.45-0.68-0.68c-0.21-0.21-0.42-0.43-0.64-0.64
		c-0.48-0.7-0.95-1.4-1.43-2.11c-0.21-0.21-0.43-0.43-0.64-0.64c-0.21-0.21-0.42-0.43-0.64-0.64c-0.46-0.69-0.93-1.38-1.39-2.07
		c-0.72-1.1-0.9-2.52-2.02-3.38c0.4-1.95,1.93-0.92,2.85-0.92c23.44-0.06,46.89-0.29,70.33,0.04c14.6,0.21,28.63-1.94,42.09-7.6
		c2.75-1.16,5.57-2.28,7.94-4.2c1.1-0.72,2.53-0.9,3.39-2.03c0.67-0.5,1.65-0.53,2.07-1.4c0.2-0.2,0.4-0.4,0.6-0.6
		c0.7-0.48,1.4-0.95,2.11-1.43c0.21-0.21,0.43-0.43,0.64-0.64c0.21-0.21,0.43-0.42,0.64-0.64c0.7-0.48,1.4-0.95,2.11-1.43
		C335.7,599.69,335.92,599.48,336.13,599.26z"/>
	<path class="st2" d="M177.39,479.27c0.22-0.25,0.43-0.51,0.65-0.76c0.51-0.87,1.01-1.74,1.52-2.61c0.23-0.26,0.45-0.53,0.68-0.79
		c0.24-0.28,0.48-0.56,0.72-0.84c0.24-0.28,0.48-0.56,0.72-0.84c0.24-0.28,0.48-0.56,0.72-0.84c0.24-0.28,0.48-0.56,0.72-0.84
		c0.24-0.28,0.48-0.56,0.72-0.84c0.24-0.28,0.48-0.56,0.72-0.84c0.24-0.28,0.48-0.56,0.72-0.84c0.24-0.28,0.48-0.56,0.72-0.84
		c0.24-0.28,0.48-0.56,0.72-0.84c0.23-0.26,0.45-0.53,0.68-0.79c0.75-0.59,1.5-1.18,2.24-1.78c0.21-0.25,0.43-0.5,0.64-0.75
		c0.73-0.57,1.47-1.15,2.2-1.72c0.72-0.56,1.44-1.12,2.16-1.68c0.72-0.56,1.44-1.12,2.16-1.68c9.26-5.62,18.85-10.07,29.17-12.52
		c12.27-2.91,24.52-2.84,36.9-1.63c12.82,1.26,24.67,6.04,36.14,12.47c0.91,1.4,2.44,1.61,3.61,2.52c0.72,0.56,1.44,1.12,2.16,1.68
		c0.72,0.56,1.44,1.12,2.16,1.68c0.73,0.57,1.47,1.15,2.2,1.72c0.21,0.25,0.43,0.5,0.64,0.75c0.75,0.59,1.5,1.18,2.24,1.77
		c0.23,0.26,0.45,0.53,0.68,0.79c0.24,0.28,0.48,0.56,0.72,0.84c0.24,0.28,0.48,0.56,0.72,0.84c0.24,0.28,0.48,0.56,0.72,0.84
		c0.24,0.28,0.48,0.56,0.72,0.84c0.24,0.28,0.48,0.56,0.72,0.84c0.24,0.28,0.48,0.56,0.72,0.84c0.23,0.26,0.45,0.53,0.68,0.79
		c0.51,0.87,1.02,1.74,1.52,2.61c0.23,0.26,0.46,0.53,0.68,0.79c0.23,0.26,0.45,0.53,0.68,0.79c0.49,0.86,0.99,1.71,1.48,2.57
		c4.18,8.74,7.34,17.82,7.02,28.1c-0.12,3.88-0.97,7.53-1.94,11.22c-0.34,1.26-1.91,2.95-0.02,4.38c5.52,2.82,11.36,4.81,16.59,8.41
		c0.72,0.56,1.44,1.12,2.16,1.68c0.72,0.56,1.44,1.12,2.16,1.68c0.73,0.57,1.47,1.15,2.2,1.72c0.23,0.26,0.45,0.53,0.68,0.79
		c0.24,0.28,0.48,0.56,0.72,0.84c0.24,0.28,0.48,0.56,0.72,0.84c0.23,0.27,0.46,0.53,0.68,0.8c0.99,1.15,1.97,2.3,2.96,3.45
		c0.23,0.26,0.46,0.53,0.68,0.79c0.24,0.28,0.48,0.56,0.72,0.84c0.23,0.26,0.45,0.53,0.68,0.79c0.49,0.86,0.99,1.71,1.48,2.57
		c0.77,1.37,0.96,3.14,2.16,4.2c1.69,5.24,3.43,10.35,3.5,16.19c0.08,7.37-1.36,14.11-4.23,20.55c-0.48,0.84-0.96,1.68-1.44,2.52
		c-0.49,0.86-0.98,1.71-1.48,2.57c-0.23,0.26-0.45,0.53-0.68,0.79c-0.23,0.26-0.46,0.53-0.69,0.79c-0.51,0.87-1.01,1.74-1.52,2.61
		c-0.23,0.26-0.45,0.53-0.68,0.79c-0.23,0.26-0.45,0.53-0.68,0.79c-0.75,0.59-1.5,1.18-2.24,1.78c-0.23,0.27-0.45,0.53-0.68,0.8
		c-0.23,0.26-0.45,0.53-0.68,0.79c-0.75,0.59-1.5,1.18-2.24,1.78c-0.21,0.25-0.43,0.5-0.64,0.75c-1.16,0.96-2.73,1.13-3.65,2.56
		c-13.45,8.64-27.85,11.72-43.18,11.64c-60.5-0.3-121.01-0.26-181.52-0.02c-14.12,0.06-27.24-3.63-39.79-10.79
		c-0.91-1.4-2.44-1.61-3.61-2.52c-0.73-0.57-1.47-1.15-2.2-1.72c-0.21-0.25-0.43-0.5-0.64-0.75c-0.75-0.59-1.5-1.18-2.24-1.77
		c-0.23-0.26-0.45-0.53-0.68-0.79c-0.24-0.28-0.48-0.56-0.72-0.84c-0.24-0.28-0.48-0.56-0.72-0.84s-0.48-0.56-0.72-0.84
		c-0.24-0.28-0.48-0.56-0.72-0.84c-0.24-0.28-0.48-0.56-0.72-0.84s-0.48-0.56-0.72-0.84c-0.24-0.28-0.48-0.56-0.72-0.84
		c-0.23-0.27-0.45-0.53-0.68-0.79c-0.51-0.87-1.02-1.74-1.52-2.61c-0.21-0.25-0.43-0.5-0.64-0.75c-3.47-7.21-5.94-14.64-5.69-23.22
		c0.22-7.52,2.81-13.89,5.67-20.28c0.49-0.86,0.98-1.71,1.48-2.57c0.23-0.26,0.45-0.53,0.68-0.79c0.24-0.28,0.48-0.56,0.72-0.84
		c0.23-0.26,0.46-0.53,0.69-0.8c0.99-1.15,1.97-2.3,2.96-3.45c0.23-0.27,0.45-0.53,0.68-0.8c0.24-0.28,0.48-0.56,0.72-0.84
		c0.24-0.28,0.48-0.56,0.72-0.84c0.23-0.26,0.45-0.53,0.68-0.79c0.73-0.57,1.47-1.15,2.2-1.72c0.72-0.56,1.44-1.12,2.16-1.68
		c0.72-0.56,1.44-1.12,2.16-1.68c5.06-3,10.14-5.92,15.7-7.55c0.83-0.24,2.39-0.43,2.17-2.2c-1.05-8.33,2.15-15.26,5.25-22.24
		c0.21-0.25,0.43-0.5,0.64-0.75c0.51-0.87,1.01-1.74,1.52-2.61c0.23-0.26,0.45-0.53,0.68-0.79c0.24-0.28,0.48-0.56,0.72-0.84
		c0.24-0.28,0.48-0.56,0.72-0.84c0.24-0.28,0.48-0.56,0.72-0.84c0.24-0.28,0.48-0.56,0.72-0.84c0.23-0.26,0.45-0.53,0.68-0.79
		c0.75-0.59,1.5-1.18,2.24-1.78c0.21-0.25,0.43-0.5,0.64-0.75c0.73-0.57,1.47-1.15,2.2-1.72c1.17-0.9,2.7-1.11,3.61-2.52
		c13.49-8.35,28-10.83,43.01-9.73c5.02,0.37,10.05,1.46,14.88,3.35C175.2,480.14,176.38,481.08,177.39,479.27z"/>
</g>
</svg>
