<svg xmlns="http://www.w3.org/2000/svg" viewBox="0 0 859.34 861.44"><defs><style>.cls-1{fill:#d9bfa0;}.cls-2{fill:#592918;}</style></defs><g id="Capa_2" data-name="Capa 2"><g id="Capa_1-2" data-name="Capa 1"><path class="cls-1" d="M316.32,861.44c-15.56-1-28.84-5.59-39.25-17.09Q145.63,699.26,14.13,554.2C.75,539.41-3.2,521.79,2.59,502.66Q59.95,313,117.7,123.54c5.62-18.43,18.76-30.24,37.42-34.59q188.91-44,378-87.47c19-4.37,35.81,1,49,15.36,34.87,38.05,69.4,76.4,104.06,114.64q79.68,87.87,159.3,175.8c13.38,14.83,17.08,32.53,11.31,51.61q-57,188.67-114.4,377.24c-6,19.73-19.53,32-39.77,36.63Q568,803.92,433.45,835.15q-54.17,12.55-108.33,25.06C322.05,860.92,318.87,861.1,316.32,861.44Z"/><path class="cls-2" d="M544,36.76c3.4-.89,6.19.85,9,3.3C569.25,54.44,583.29,71,597.83,87q100,110.22,199.88,220.57C804,314.45,809.57,322,816,328.71c5.79,6.13,6.46,12.85,5.11,20.72-4.16,24.36-12.53,47.53-19.63,71q-42.19,139.8-84.85,279.46c-2.32,7.62-5.46,15-7.78,22.61-1.92,6.34-6.07,9.8-12,12.17-14.42,5.76-29.43,9.32-44.49,12.81Q495.63,783.78,339,820c-8.22,1.9-16.31,4.72-24.95,4.6a9.13,9.13,0,0,1-6.28-2.3c-16.4-14-30.28-30.45-44.71-46.34Q162,664.68,61.12,553.19C55,546.41,49.48,539,43.21,532.37c-5.64-6-6.23-12.62-5-20.27,3.5-21.43,10.72-41.83,17-62.49q43.64-144.3,87.62-288.5c2.27-7.46,5.4-14.65,7.64-22.12,2-6.54,6.23-10.07,12.36-12.5,14.13-5.58,28.79-9.17,43.52-12.58L480.8,50.41c18.62-4.3,37.27-8.53,55.89-12.87A24.64,24.64,0,0,1,544,36.76Z"/><path class="cls-1" d="M555.41,564.91c0,11.43-5.93,17-16,15.8s-19.51-5.34-29.17-8.35Q387.09,534,264,495.4c-18.68-5.85-21.33-17.23-7.18-30.89q81-78.19,162.09-156.37,23-22.18,46.07-44.3a34,34,0,0,1,3-2.61c9.52-7.13,19.33-4.31,22.62,7.11,2.89,10,4.79,20.37,7,30.6Q526,428.47,554.23,558C554.83,560.76,555.19,563.57,555.41,564.91Z"/><path class="cls-1" d="M212.11,169c8.6,1.71,19.36,3.81,30.1,6l159.24,32.69c10.09,2.08,20.2,4.08,30.28,6.2a29.23,29.23,0,0,1,5.68,1.85c8.3,3.67,10.53,10.62,5.78,18.3a27.69,27.69,0,0,1-4.46,5.33Q384.46,291.71,330.13,344q-39.19,37.78-78.36,75.61c-5.39,5.2-10.71,10.47-16.16,15.62a34.74,34.74,0,0,1-5.9,4.57c-7.19,4.32-13.38,2.07-16.27-5.82-2.26-6.21-2-12.8-2.61-19.22q-6.68-69.57-13-139.15-3.92-42.26-7.8-84.5C188.86,178.2,197.29,168.88,212.11,169Z"/><path class="cls-1" d="M765,357.86c.09,5.84-2.35,10.65-5.92,15q-71.24,87.24-142.49,174.49a99.41,99.41,0,0,1-6.87,7.9c-8.07,8-16.78,6-20.11-4.93-2.36-7.77-3.81-15.82-5.55-23.78q-28.38-129.81-56.72-259.64c0-.16-.08-.32-.11-.48-1.1-5.74-1.63-11.59,3.41-15.72s10.73-2.65,16.08-.36c16.5,7,32.95,14.2,49.4,21.34q77,33.45,154.06,66.9C758.72,342.31,764.68,347.88,765,357.86Z"/><path class="cls-1" d="M250.82,529.34c4,0,8.62,2.08,13.36,3.56q126.06,39.33,252.09,78.83a33,33,0,0,1,8.69,3.69c6.6,4.37,7.58,11,2.53,17a42.61,42.61,0,0,1-8.35,7.1q-85.32,61-170.67,121.92c-14.77,10.55-28.55,6.25-34.77-10.67Q277,650.94,240.24,551.07a34.29,34.29,0,0,1-2.52-9.1C237,533.57,241.3,529,250.82,529.34Z"/><path class="cls-1" d="M524.93,180.4a57,57,0,0,1,1.36-7.85q8.57-28.41,17.41-56.72a24.83,24.83,0,0,1,3.29-6.67c4.23-6.09,11.07-7.51,17.58-3.91,3.73,2.06,6.37,5.29,9.17,8.37L715.59,270.1a57.17,57.17,0,0,1,7.19,8.93c1,1.64,1.81,3.45.75,5.14-1.16,1.86-3.2,1.27-5,.88-7.71-1.7-14.58-5.54-21.73-8.63q-75.7-32.72-151.31-65.66C532.55,205.15,526.09,195.18,524.93,180.4Z"/><path class="cls-1" d="M459.87,182.8c-9-1-19.76-3.82-30.66-6q-75.51-15.42-151-31a44.48,44.48,0,0,1-7.12-2.22c-1.53-.6-3.25-1.48-3.3-3.39s1.66-2.74,3.16-3.48c6.67-3.25,14-4.14,21.11-5.79q98.58-23,197.24-45.65a32.14,32.14,0,0,1,6.91-.82c10.16-.07,16.4,7.1,14,17-2.78,11.27-6.47,22.31-9.83,33.43q-3.89,12.88-7.95,25.71C488.1,174.18,476.2,182.84,459.87,182.8Z"/><path class="cls-1" d="M85.7,475.69c-.09-3.05.82-5.91,1.69-8.78q31.15-102.74,62.34-205.47a64,64,0,0,1,3.37-8.29c.62-1.32,1.5-2.73,3.35-2.51s2.22,1.89,2.65,3.27c2,6.58,2,13.46,2.64,20.23q4.95,51.66,9.7,103.34c2.34,25.18,4.85,50.34,6.91,75.54,1.15,14.1-10.55,28.12-24.94,30.54-16.07,2.7-32.16,5.24-48.26,7.75C93.73,493.09,85.59,486.47,85.7,475.69Z"/><path class="cls-1" d="M620.3,610.47c-.14-7.86,2.76-14.52,7.68-20.54q49.62-60.66,99.16-121.4c6.42-7.86,12.81-15.75,19.37-23.5,2.18-2.58,4.83-6.87,8.23-5,3.23,1.76,1.31,6.45.36,9.63-7,23.72-14.26,47.38-21.44,71.05q-21,69.1-41.94,138.2c-1.28,4.19-3,8.08-6.52,11-5.69,4.7-13.92,4.31-20.36-1.86q-18.95-18.12-37.26-36.88C622.11,625.51,620.13,618.26,620.3,610.47Z"/><path class="cls-1" d="M420.19,764.06c-2.33-.46-4.86.75-5.86-1.56s1-4.08,2.61-5.42c9.3-7.84,19.52-14.44,29.38-21.52q56-40.15,112.06-80.13c15.37-11,33.19-9.38,46.63,4,9.8,9.74,19.7,19.38,29.54,29.09a50.56,50.56,0,0,1,3.75,4c7.78,9.57,4.71,19.64-7.29,23-7.82,2.23-15.83,3.81-23.76,5.64q-90.56,21-181.12,41.87C424,763.52,421.89,763.77,420.19,764.06Z"/><path class="cls-1" d="M163.46,518.33c16.22-.06,29.74,8.85,34.69,22.2q29.76,80.37,59.2,160.85c1.3,3.54,3.72,8.77.7,10.68-3.83,2.42-6.94-2.62-9.49-5.41q-45.92-50.39-91.63-100.95-24.48-27-48.91-54.05a32.55,32.55,0,0,1-3.38-4.31c-5.77-9.09-2.72-17.74,7.73-20.48,7-1.85,14.36-2.71,21.58-3.89C144.45,521.26,155,519.66,163.46,518.33Z"/></g></g></svg>