<svg xmlns="http://www.w3.org/2000/svg" viewBox="0 0 530.61 530.71"><g id="Capa_2" data-name="Capa 2"><g id="Capa_1-2" data-name="Capa 1"><path d="M227.56,505.66c-3.91-9.3-7.71-18.11-11.35-27-10.17-24.83-19.46-49.95-25.42-76.19-1.5-6.59-1.49-6.52,5-8.83,4.55-1.62,9-3.42,13.52-5.21,1.69-.67,3.32-1.44,6,.18a197.69,197.69,0,0,1-14.58-31c-7.57-21.25-11.65-43.17-10.36-65.68.71-12.42,6.77-23.56,12.08-34.68,1.18-2.45,2.76-1.75,4.39-.36a155.49,155.49,0,0,0,15.95,12c1.48,1,2.8,2.36,5.57,1.95-7.24-6-14.39-11.39-20.39-18C190.85,234,176,213.62,165.32,190.41c-2.72-5.91-4.62-12.15-4.17-18.84.39-5.93,3.59-9.57,9-10.24,6.6-.82,11.21,1.65,13.2,7a38.18,38.18,0,0,0,2.29,5.27c-6.59-25.63-3.56-50.87,2.56-76a37.2,37.2,0,0,1,5.34-12.31c4.77-7,10.41-8.12,17.48-3.27,8,5.46,13.53,13.22,19.3,20.75,9.2,12,16.63,25.39,28.18,35.55,1.43,1.26,2.39,1.8,4.23,1.49,24.24-4.1,42.83,6,58.15,23.65,7.47,8.6,13.43,18.25,16.8,29.27.89,2.9,3.25,4.08,5.42,5.55q8,5.4,16,10.75l-.81,1.63L339.11,202l-.41.77q11.25,6.65,22.49,13.3l68.44,40.27c.71.42,1.41.88,2.1,1.34.93.62,2.53.93,2.24,2.33-.34,1.61-2.06,1.45-3.32,1.56a82.73,82.73,0,0,0-26.91,7.16c-19.12,8.6-30.88,22.67-31.9,44.36,2.59-10.72,7.1-20.43,14.62-28.68,2.53-2.77,4.33-3.16,7.43-.63,8.84,7.22,14.85,16.55,20.57,26.15,6,10,11.52,20.25,18.75,29.49,11,14.09,25.4,23.36,41.94,29.45,4,1.45,5,2.75,2.66,6.68-2.81,4.73-6.79,8.58-9.14,13.71,4.57-2.53,7.76-6.58,11-10.48,4.64-5.55,7.29-12.26,10.07-18.83a240,240,0,0,0,18.5-75.26c3.89-50.06-6.89-97-31.66-140.54A242.91,242.91,0,0,0,239,23.51,241.56,241.56,0,0,0,133.64,60.92a248.94,248.94,0,0,0-49.73,42.24c-.84.92-1.24,2.45-4,2,3.18-5.51,5.94-10.87,9.24-15.87C108.83,59.54,134.47,36.48,166.8,21A212.38,212.38,0,0,1,232.65,2a265.56,265.56,0,0,1,139,20.21,260.45,260.45,0,0,1,62,38,264.9,264.9,0,0,1,94.69,168.88c2.7,19.51,2.79,39.08,1.41,58.73A249.16,249.16,0,0,1,515,356.29,257.71,257.71,0,0,1,473.64,430c-36.86,45.73-83.43,76.87-140.25,92.15-23,6.2-46.59,8.68-70.54,8.58a257.4,257.4,0,0,1-103.09-22A269.06,269.06,0,0,1,16,355.84,257.89,257.89,0,0,1,1,287.9,263.22,263.22,0,0,1,57.73,100.49a2.1,2.1,0,0,1,2.12-1.08c1.39,1.24.21,2.52-.18,3.6C51.36,126.07,46.34,150.09,39,173.44,33.24,192,27.13,210.52,24.54,230,22,249,21,268,22.82,287.21c2.86,30.69,10.82,60,25.07,87.29C81.36,438.61,132.75,481,202.66,500.56A142,142,0,0,0,227.56,505.66Zm41.59-346.8c6.32,11.19,17,16.5,26.16,13.43C288.47,164.62,280.76,158.78,269.15,158.86Z"/></g></g></svg>