<svg xmlns="http://www.w3.org/2000/svg" viewBox="0 0 568.16 345.26"><defs><style>.cls-1{fill:#ffce00;}</style></defs><g id="Capa_2" data-name="Capa 2"><g id="Capa_1-2" data-name="Capa 1"><path class="cls-1" d="M230.27,341.55a93.1,93.1,0,0,1-34.59,3.36,161.35,161.35,0,0,1-52.6-13.5c-15.47-6.89-29.89-16.2-43.52-26.6-39.44-30.09-70.21-67.81-97-109.1a29.14,29.14,0,0,1-2.16-4.33A11.83,11.83,0,0,1,0,188.89c4.68-.4,7.7,3,11.27,4.49,25,10.73,50.78,9.28,76.87,6.4,13-1.43,25.76-4.89,39-3.69,6.37.58,8.1-1.55,6.42-8-8.59-32.79-11.38-66.3-11-100.06.16-14.26,1.66-28.51,2.56-42.76.11-1.59.19-3.24,2.46-4.26,5.39,9.3,10.27,18.83,17.39,27.07,6.87,8,14.91,14.34,23.23,20.48a349.5,349.5,0,0,0,36.2,23c4.06,2.29,6,2,7.6-2.55a422,422,0,0,1,20.88-49.72A460.2,460.2,0,0,1,267.63,1.2c.52-.75,1-1.55,3-1,.31,6.82.85,14,.88,21.1,0,6.11,1.93,11.78,3.5,17.51,6,21.89,18.39,40.65,29.63,60,3,5.19,6.32,10.29,8.58,15.8,2.41,5.87,4.6,6.86,9.81,2.57a340.81,340.81,0,0,1,52.89-35.26c22.44-12.34,45.95-22.28,70-31.06a22.54,22.54,0,0,1,4.64-.72c1.55,2.92-.79,4.15-2,5.47C435,70.12,429,88.16,424.91,107c-4,18.53-4.28,37.53-7.12,56.2-.56,3.63-1.64,7.18-2.36,10.79-.91,4.48.35,7.06,5.59,6.95a362.21,362.21,0,0,1,65.39,4.18c18.87,3,37.67,6.54,56,12.28l22.34,7c1.53.47,3.51.81,3.44,2.77s-2,1.44-3.3,1.66c-26,4.56-45.86,19.7-63.48,38-11,11.42-21.88,22.95-33.58,33.59-25.61,23.29-55.24,38.26-89.83,44a132.25,132.25,0,0,1-49.44-1.39C304,317.93,283,306,265.21,287.5c-19.46-20.16-43.56-34.26-70.21-42.7-24.19-7.66-49.05-12.59-74.85-7.29-7,1.43-14.07,2-20.93,4.22-5.26,1.68-6.35,4.27-4,9.24,7.53,15.62,18.38,28.78,30.56,40.8a164.53,164.53,0,0,0,80.29,43.88C214.11,337.48,221.9,340.44,230.27,341.55Zm45-61.82a13,13,0,0,0,.13-8.46c-3.37-11.46-6.28-23-10.95-34.11-18.21-43.29-47.54-75.5-91.29-94-5.9-2.5-7.62-.33-8.57,4.5-2.43,12.46-4.32,25.11-2.6,37.73,2.09,15.38-.92,11.1,13.57,15.75,3.94,1.27,7.88,2.61,11.92,3.48,14.79,3.18,27.72,11.22,40.67,18,7.3,3.84,14.16,11.77,20.54,18.66A159.33,159.33,0,0,1,275.23,279.73Zm42.61,21.86c11.93-1.37,24.17-1.88,36.09-4.68,14.1-3.3,27.27-9,40.56-14.81,26.36-11.6,46.72-29.69,63.49-52.49,2.89-3.93,2.83-7-2.26-9.21a152.87,152.87,0,0,0-46-11.75c-3.11-.29-4.89.89-5.65,3.74-1.4,5.23-4.59,9.54-7.16,14.16-18.27,32.91-44.18,56.88-80.42,68.87-2.83.94-8.18.65-7.5,4.38C309.6,303.15,314.66,300.51,317.84,301.59Zm60.72-160c-.09-.88-.23-2.95-.54-5-1.22-8.18-1.53-8.38-9.71-6.09a164.44,164.44,0,0,0-30.81,12.21c-10.9,5.6-10.92,5.51-8.67,17.3.52,2.72.93,5.46,1.34,8.19,5.42,36.21-.26,70.23-19.84,101.59-1.65,2.65-6.11,6-2.83,8.67,3.1,2.51,5-2.61,7.2-4.64.16-.16.39-.24.57-.39C356.24,239.46,377,195.72,378.56,141.54ZM292.08,262.39A173.8,173.8,0,0,0,296.66,191c-4.48-30.56-16.11-58-35.76-82.06-2.83-3.47-4.56-3.62-7.39-.14-4.07,5-7.84,10.21-11.51,15.54-5.37,7.8-4.93,11.56,2.24,18.11,17.67,16.15,30,36.09,38.66,58.23C290.69,220.51,293.35,241.19,292.08,262.39Z"/></g></g></svg>