<svg xmlns="http://www.w3.org/2000/svg" viewBox="0 0 167.67 190.57"><defs><style>.cls-1{fill:#3f3f3f;}</style></defs><g id="Capa_2" data-name="Capa 2"><g id="Capa_1-2" data-name="Capa 1"><path class="cls-1" d="M132.22,14.43c1.17,5.61,3.05,10.86,6.63,15.48,1.8,2.32,1.37,5.08-.45,7.32-1.19,1.45-4.62,2.4-6.58,1.76a3.49,3.49,0,0,1-2-2,6.68,6.68,0,0,0-5.44-3.8c-.62-.1-1.24-.26-1.86-.42-4.59-1.18-8.46-3.12-8.76-8.67-5.21,2-8.09,9.65-6.06,15.55A19.64,19.64,0,0,0,111,45.22c.31.4.8.92.34,1.49s-.88.13-1.34.09c-1-.09-2.06-.15-3.31-.25a4.57,4.57,0,0,0,.52.38c2.82,1,6,1.48,7.89,4.14,3,4.12,4.32,8.87,5.06,13.82.16,1.07-.45,1.55-1.36,1.94-2.35,1-4.68,2.06-7,3.18a1.9,1.9,0,0,1-2.53-.54,5,5,0,0,0-4.49-1.63,25,25,0,0,1,4.52,4c.72.85,1.64,0,2.39-.33a91.45,91.45,0,0,1,18.1-6.81c1.5-.38,2.88-.55,3.59,1.24,2.4,6,6.51,11,10,16.28,2.19,3.29,2,6.39-.87,9a24.23,24.23,0,0,0-7.37,11.77c-1.09,4-3.56,4.6-6.72,1.92a22.71,22.71,0,0,1-3.73-4c-1.06-1.48-.86-2.7.57-3.7a8,8,0,0,0,3.53-4.07c.31-.94,1.33-1,2.2-1.21a6,6,0,0,0,3.66-9,44.6,44.6,0,0,0-6-8.36,2.92,2.92,0,0,0-3.2-.83A14.5,14.5,0,0,0,117.94,79a17.5,17.5,0,0,1-6.14,5.09c1.5.43,2.5-.34,3.61-.66.5-.14,1.1-.64,1.54-.09s0,1.06-.3,1.55a38.66,38.66,0,0,1-10.51,12.88,54.44,54.44,0,0,1-12.79,7.4c-4.82,2.1-8.14,5.5-9.52,10.68C83.28,118,82.51,120,82,122.08c-1.76,7.93-6.35,13.85-13,18.28-3.77,2.53-7.73,4.79-11.54,7.28-6.76,4.42-9.15,11.22-6.75,19,1.79,5.8,4.62,10.86,10,14.18,2.44,1.51,3.24,4.05,3.79,6.68.32,1.55-.7,2.27-1.93,2.55a25.89,25.89,0,0,1-13.44-.84c-2.12-.63-2.67-2.5-1.55-4.4a11,11,0,0,0,1.48-4c.38-2.58-.62-3.93-3.19-4.12-2.12-.16-3.12-1-2.48-3.18.7-2.39.12-4.75-.2-7.1a31.82,31.82,0,0,1,0-9.09,11.18,11.18,0,0,0-.32-5.42,4.24,4.24,0,0,1,1.94-5.54,47.18,47.18,0,0,0,5.57-4.13c5.53-4.68,7-10.61,5.63-17.48-.42-2-1-4-1.59-6a22.75,22.75,0,0,1,.84-16.14c.23-.55.84-1.19.31-1.76s-1.34,0-1.93.31a28.59,28.59,0,0,1-10.17,2.43,1.13,1.13,0,0,1-1.15-.55c.75-1.14,2.49-.77,3.42-2.14-1.76.28-3.3.54-4.85.75s-1.39-.47-.51-1.53c-2.11-.3-4.12-.6-6.13-.86-10.15-1.29-15.89-7.8-19.41-16.74-1.72-4.37-3.09-8.88-4.71-13.6a50,50,0,0,0,7.07,22.67c3.72,6.09,9.77,8.67,16.65,9.54.84.11,1.79-.07,2.42.82-.69,1.2-2,.89-3,1.09-9.16,1.78-17.74-1.78-22.22-9.14-1.39-2.29-1.29-2.54,1.53-2.71C6.81,87.1,7,81,6.58,75.25S6,63.92,5.06,58.32A31.5,31.5,0,0,0,.7,46.48c-.37-.58-1-1.25-.53-1.95s1.43-.44,2.2-.27a21.64,21.64,0,0,1,15.41,11.8,6.36,6.36,0,0,0,1.66,2.29c0-1.71,0-3.41,0-5.11,0-.5-.56-1.18.22-1.48s1,.38,1.32.8a23.25,23.25,0,0,1,5.41,11.57c.15,1,.29,1.89.45,2.92,1-.87.42-2.22,1.08-3.18,1.26.48,1.42,1.67,1.85,2.65,2.2,5.06,3.61,10.41,6.08,15.37C38.16,86.5,41.21,90.21,46.18,92a3.78,3.78,0,0,1,1,.61c.18.13.27.37.63.9-7.38-1.15-13-4.74-17.7-9.92,3.5,5.4,8.28,9.16,14.59,10.28,9.69,1.72,18.6,0,25.68-7.51,4.49-4.77,6.31-10.7,6.48-17.09.13-4.86-.55-9.76-.31-14.61.4-8.12.76-16.34,4.32-23.89C87,17.82,96.88,9.17,111,6.05a9.38,9.38,0,0,0,5.38-3.26l0,0c.58-.24,1.17-.47,1.74-.73,2.65-1.22,3.28-.79,3.15,2.21,0,1-.73,2.35,1.21,2.28A26,26,0,0,1,132.22,14.43Z"/><path class="cls-1" d="M108.93,125.14c.12,4.25-2.44,7-5.2,9.6-1.33,1.27-2.73,2.45-4,3.75-4.67,4.63-4.48,8.07.44,12.51,2.8,2.52,6,4.4,9,6.72,5.05,4,7.71,9.45,9.39,15.48a2.25,2.25,0,0,1-1.83,3.06c-3,.81-5.83,0-8.53-1.37-1-.48-1-1.32-.73-2.26.41-1.73.3-3.35-1.26-4.55a1.77,1.77,0,0,1-.41-2.37,2.34,2.34,0,0,0-1.26-3.38A51,51,0,0,1,94.2,155c-2.81-2.45-6.56-3.25-9.56-5.39-1.4-1-1.73-1.76-.8-3.28a32.65,32.65,0,0,0,3.72-7.48c1.16-3.85.6-7.28-2.16-10.22a3.7,3.7,0,0,1-.94-4.14,18.49,18.49,0,0,0,.68-2.78c1.54-8.45,6.9-13.38,14.66-16.15.69-.24,1.39-.58,1.88.28C105.17,111.88,108.26,118.06,108.93,125.14Z"/><path class="cls-1" d="M116.36,2.79c-1.83,1.42-4,1.76-6.21,2.17A42.74,42.74,0,0,0,75.7,42.48c-.26,2.7-.64,5.39-.89,8.09a2.22,2.22,0,0,1-1.31,2.1,28.73,28.73,0,0,0-6.93,4.67c-.46-5,1-9.25,2.33-13.49a58.77,58.77,0,0,1,6-12.61C71,32,68,33.89,65,35.56c2.63-9.85,9.17-16.06,18-20.34-4.26.07-8,1.83-11.92,3.2a26.52,26.52,0,0,1,8-9.09C89.55,1.09,101.48-1.62,114.58.91c.85.17,2.63-.07,1.76,1.9Z"/><path class="cls-1" d="M134.34,44c3.76-.14,6.79,1.56,9.8,3.2a55.54,55.54,0,0,0,10,4.55,3.52,3.52,0,0,1,2.52,2.88c1.2,5.08,3.16,9.68,7.71,12.79,2,1.38,2.74,3.68,3.23,6a2.06,2.06,0,0,1-1.87,2.77,55.8,55.8,0,0,1-7.84.59c-2.84-.06-3.53-1-3.23-3.77s.67-5.24-1.64-7.31a1.93,1.93,0,0,1-.33-1.34c.1-4-2.43-6.2-5.65-7.5s-6.56-2-9.83-3c-1.23-.37-1.92.29-2.63,1.12-2.94,3.38-6,6.64-10.08,8.68-2.56,1.28-2.56,1.26-3.12-1.47A35.54,35.54,0,0,0,119.53,55c-.6-1.38-.33-2.21,1.07-2.84A36,36,0,0,0,130.71,45,4.51,4.51,0,0,1,134.34,44Z"/><path class="cls-1" d="M132.22,14.43a26,26,0,0,0-9.78-7.86c-.65-.86-1.28-1.93-.53-2.83s2-.06,2.79.35c3.21,1.55,6,3.87,9.6,4.73.38.1.86.26.74.76-.19.82-1,.88-1.85,1.24A8.19,8.19,0,0,0,136,12.09c.52.23,1.48,0,1.35,1-.09.67-.73,1-1.34,1.24A11.54,11.54,0,0,1,132.22,14.43Z"/></g></g></svg>