<svg xmlns="http://www.w3.org/2000/svg" viewBox="0 0 267.48 242.96"><defs><style>.cls-1{fill:#1f00d3;}</style></defs><g id="Capa_2" data-name="Capa 2"><g id="Capa_1-2" data-name="Capa 1"><path class="cls-1" d="M111.93,144.37a20.41,20.41,0,0,1,5.84,11.74,4.29,4.29,0,0,1,.11.79c-.06.95.57,2.26-.44,2.74-.8.38-1.34-.87-2-1.43-5.59-5.06-12.88-5.75-18.48-1.8a9.38,9.38,0,0,0-2.71,3.87A92,92,0,0,1,84.82,176c-8.68,11.14-19.6,18.69-33.74,21.35a50.13,50.13,0,0,1-27.64-2.13A29.77,29.77,0,0,1,4.61,162.62c1.32-8.8,5.1-16.06,12.69-21a26.12,26.12,0,0,1,20.62-3.74,16.43,16.43,0,0,1,9.77,6.16c4.79,6.4,2.41,15.09-5.22,18.75-3.68,1.77-7.54,2.6-11.61,1.25a3.69,3.69,0,0,1-2.68-2.62,17.84,17.84,0,0,0,7.06,1.22c5.6-.36,10.36-5.08,10.21-10.32-.11-3.67-2.2-6.1-5.3-7.61-5.8-2.83-13.15-1.38-17.9,3.24s-5.93,10.43-5.33,16.69c.64,6.71,3.26,12.48,9,16.46,4.2,2.94,9,3.05,13.82,2.61,7-.65,13.31-3.16,18.27-8.37a46.52,46.52,0,0,0,11.59-20.66c.7-2.68.3-3.08-2.38-3.1a114.4,114.4,0,0,1-12.69-1.16,1.93,1.93,0,0,1-1.9-1.46c-2.22-8.3-8.37-11.87-16.17-13.44a27.26,27.26,0,0,0-12.81.94,3.61,3.61,0,0,1-3.62-.85C12.43,129.53,6.51,122.14,3.15,113-1.14,101.31-1.53,89.6,5,78.54A25.63,25.63,0,0,1,25.11,65.75c8.77-1,16.49,1.33,22.77,7.65,5.17,5.2,6.41,11.82,3.59,18a12.42,12.42,0,0,1-6.12,6.07,19.57,19.57,0,0,1-15.51,1A7,7,0,0,1,25,92.15c4.57,5.43,10.66,6.74,16.83,3.62a10.12,10.12,0,0,0,3.75-15.13c-2.92-4.29-7.11-6.4-12.06-7.4-8.39-1.71-16.36,4.11-18.24,12.28a29.7,29.7,0,0,0,3.28,21.59c7.75,14.07,20.13,21.28,35.73,23.51A84,84,0,0,0,67.8,131a11.15,11.15,0,0,0,2.75-.41c2.87-.79,3.69-3.4,1.74-5.65-5-5.73-9.29-11.85-11.84-19.06A47.53,47.53,0,0,1,58,84.65c1.06-10,6.1-18,11.86-25.77,3.89-5.23,7.86-10.43,10.84-16.26C84.92,34.27,85,26,79.74,18c-6.38-9.7-18.28-13.13-29-10.37a21.55,21.55,0,0,0-12.11,7.61c-5.58,7.25-3.48,14.17,3.17,19.19a13.55,13.55,0,0,0,13.36,2.23C59.94,35,63.72,30,62.1,24.41c-.12-.44-.37-.88.13-1.39a4.2,4.2,0,0,1,1.71,3.13A10,10,0,0,1,61,35.27a14.81,14.81,0,0,1-11.56,4.54c-8-.38-14.23-4.17-17.79-11.57-2.7-5.63-1.38-11,2-15.84C38.44,5.58,45.28,2,53.35.67,68.74-1.82,82.86,3.94,91.2,17.18c6,9.5,6.29,19.37,1.7,29.54-3.38,7.5-8.15,14.2-12,21.4-3.22,5.94-5.49,12.15-5.22,19a35.25,35.25,0,0,0,9.15,22.49c4.45,5,12.74,6.08,18.75,2.7.54-.3,1.13-1.09,1.72-.49s-.12,1.25-.41,1.81c-5.53,10.5-19.89,13.72-29.9,6.7-1-.69-1.9-1.43-3-2.22,1.31,2.22,4.4,4.35,8.28,5.77a21.45,21.45,0,0,0,28.83-16.15c1.12-5.84-.59-11.17-3.77-16.12C102.61,87.38,99.2,83.6,97,79a26,26,0,0,1,6.25-31.33c13.83-12.09,29.77-14,46.9-8.55a34.22,34.22,0,0,1,19,14.09,26.1,26.1,0,0,1-.87,30c-2.44,3.4-5,6.72-7.12,10.36-8.84,15.18,2.51,30,15.68,31.51,8.07.94,14.55-2,20-7.77a4.28,4.28,0,0,0,.41-.93c-7.63,7.56-16.08,9.9-25.73,5.65-4.69-2.07-9.61-7.57-9.29-10.43a3.79,3.79,0,0,1,2,.74,16,16,0,0,0,20.46-4.72c4.75-6.81,7.65-14.16,7.38-22.54a36.45,36.45,0,0,0-4.47-15.62c-3.69-7.16-8.3-13.78-12-21-10.9-21.08,2.9-41.27,20.7-46.67C206.55-1.27,216.65-.6,226.07,5c5.77,3.46,9.88,8.31,11.1,15.13.85,4.8-.87,8.94-4,12.52A19.46,19.46,0,0,1,219,39.8C213.21,40,208.21,38,204.9,33a8.21,8.21,0,0,1,.53-9.77c.43.58.06,1.18-.05,1.69-1.39,6.05,3.7,12,10.33,12.54a16,16,0,0,0,15.58-9.69c1.88-4.84.56-9.17-2.69-13C224.45,9.85,219,7.48,212.73,6.9c-8.52-.8-16.1,1.5-22.19,7.76A23.24,23.24,0,0,0,186,40.21c2.8,6.49,7.11,12,11.18,17.67,3.53,4.92,7.24,9.73,9.56,15.4a43.3,43.3,0,0,1,2.52,25.23c-2,10.15-7,18.6-13.68,26.23-2.13,2.43-1.54,4.77,1.55,5.75a11.58,11.58,0,0,0,2.74.48c8.37.43,16.66,0,24.58-3,13.48-5.11,23.38-13.87,27.61-28.08A25.16,25.16,0,0,0,251.61,83c-3.93-9.78-14.15-12.22-22.58-8.16-4.43,2.14-7.82,5.23-8.66,10.46a9.63,9.63,0,0,0,5.34,10.39c4.4,2.16,8.78,2.39,13.21.13,1.65-.85,2.6-2.38,3.93-4.17.12,3-1.41,4.57-3.26,5.77-6.8,4.43-22.4,1.9-24.55-9.28-1.06-5.53.63-10.32,4.26-14.4,6.89-7.73,20.48-10.5,30-6.43,11.7,5,17.1,14.29,18,26.51,1.23,16.22-5.78,28.87-17.19,39.75-2.93,2.79-5.48,3.12-9.2,2.28-8-1.81-15.47-.29-21.66,5.55a12.82,12.82,0,0,0-4,7,2.36,2.36,0,0,1-2.39,2.15c-4.16.46-8.31,1-12.51,1-2.39,0-2.92.57-2.35,2.88a44,44,0,0,0,7.84,16.25c3.14,4.09,6.6,7.91,11.39,10.1,6.86,3.13,14.07,4.26,21.37,2,5.57-1.69,8.81-6.1,10.72-11.38A26.79,26.79,0,0,0,250,155.6c-2.26-9.09-13.06-14.73-21.75-11.22-6.87,2.77-8.19,10.66-2.55,15.46A11.55,11.55,0,0,0,237.66,162c.5-.17,1-.28,1.67-.46-.12,1.33-1,1.81-2,2.25-3.91,1.82-7.72.88-11.4-.63-6.48-2.65-9.74-9-7.93-15.15a12.57,12.57,0,0,1,4.59-6.61c5.6-4.23,11.91-5.08,18.56-3.53,8.4,2,14.9,6.61,18.77,14.48,7.57,15.39,2.61,35-14.46,42.26a48.11,48.11,0,0,1-25.75,3.21c-13.4-1.73-24.45-7.8-33.48-17.67a65.67,65.67,0,0,1-12.58-19.57c-2.21-5.44-10.16-8.74-16.4-5.45a24.13,24.13,0,0,0-5.41,3.34c-.37.34-.83.83-1.39.5s-.4-.95-.36-1.46a19.52,19.52,0,0,1,5.79-12.82c-2.87,1.2-6.36,5.81-7.62,9.49-3.26,9.48,1.18,19.74,10.26,25,6.42,3.7,13.26,6.47,20,9.47,5.65,2.51,11.15,5.24,15.85,9.47,8,7.16,10.91,19.07,5.66,28.85-5,9.28-13.1,13.7-23,15.41a39,39,0,0,1-26.55-4.78,25.78,25.78,0,0,1-7.88-6.66c-5.69-7.39-1-15.9,5.27-18.64,6.75-2.93,13.17-1.8,18.91,2.74a7.55,7.55,0,0,1,2.65,8.41c-.22.67-.22.67-1.12,1.48-.47-.35-.3-.86-.26-1.28.62-6-4.07-9.52-9-10.3a12.33,12.33,0,0,0-9.34,2,8.65,8.65,0,0,0-2,12,18.7,18.7,0,0,0,12.11,7.42c8.38,1.67,16.36.64,23.43-4.37s7.8-15.47,1.64-21.73c-4.16-4.22-9.45-6.39-14.88-8.23-7.61-2.59-15.38-4.73-22.69-8.16a48.58,48.58,0,0,1-12.53-8.05c-.65-.59-1-1.05-1.94-.22-7.59,7-17,10.53-26.62,13.56-5.84,1.84-11.77,3.49-17.18,6.37S79.35,210.35,78.7,217c-.62,6.42,1.53,11.44,7.32,14.47,10,5.23,20,5.66,30-.3a11.33,11.33,0,0,0,5.19-6.84,8.54,8.54,0,0,0-4.73-9.94,13.64,13.64,0,0,0-10.69-.34c-4.51,1.7-6.49,5-6.45,10.77a6.24,6.24,0,0,1-.16-8c3.31-4.33,8-5.87,13.15-5.94,4.27-.05,8.38.81,11.43,4.23,4.49,5,5.32,10.89.7,16.39-5.09,6.08-11.93,9.13-19.42,10.61-10.77,2.12-21,.5-29.94-6.22-6.07-4.56-9.86-10.71-10.25-18.44a23,23,0,0,1,5.05-15.63c5-6.4,11.95-10,19.18-13.19,8.31-3.69,17-6.69,24.17-12.57C124.05,167.2,122.8,151.37,111.93,144.37Zm21.14-104c8.73.9,17.08,2.81,24,8.59,7.09,6,9.64,14,9.8,23a23.7,23.7,0,0,0-2.16-18.12c-4.72-8.44-12.44-12.3-21.58-13.64A34.52,34.52,0,0,0,133.07,40.32Zm21.48,47.8c-.09-1,.3-2.22-.89-2.62s-1.88.74-2.44,1.62a8,8,0,0,0-1.31,4.53c0,.75.05,1.52.92,1.81a1.68,1.68,0,0,0,1.88-.83C153.75,91.32,154.69,89.94,154.55,88.12Zm-41.44-.46A8,8,0,0,0,115,92.59a1.62,1.62,0,0,0,1.9.73c.74-.27.84-.95.89-1.63a8.27,8.27,0,0,0-1.62-5c-.46-.73-1.09-1.52-2.07-1.21S113.14,86.79,113.11,87.66Z"/></g></g></svg>