<svg xmlns="http://www.w3.org/2000/svg" viewBox="0 0 137.58 147.62"><defs><style>.cls-1{fill:#00560c;}</style></defs><g id="Capa_2" data-name="Capa 2"><g id="Capa_1-2" data-name="Capa 1"><path class="cls-1" d="M34.25,69.25c-2.08-.2-4.16-.44-6.25-.59-6.43-.48-12.06-2.53-16-7.94a6,6,0,0,1-1.49-3.17c7.78,4.86,16.36,6.21,25.54,7.23-1.61-1.11-3.12-1.12-4.45-1.62s-2.92-.85-4.37-1.33C22,60.1,16.51,59,11.9,55.81s-7.51-7.13-8-13.18c8.73,8.89,19.83,12.48,30.63,16.63l.25-.47c-3.33-1.66-6.7-3.25-10-5C19.35,50.84,13.63,48.25,9,44A22.62,22.62,0,0,1,1.51,28.3c9,11.37,21,17.55,33,23.81l.32-.46c-3-1.95-6.13-3.83-9.11-5.87-6-4.12-12.07-8.2-17.11-13.57C3.19,26.44.69,19.43.14,11.69A28.13,28.13,0,0,1,1.27,0c1,.85.65,2,.86,3,2.52,11.49,9.05,20.2,18.47,27,6.65,4.78,13.94,8.47,21.06,12.46,5.34,3,10.57,6.13,14.65,10.84a17.26,17.26,0,0,1,4.47,11.39,9.33,9.33,0,0,0,3.54,7.6,16.47,16.47,0,0,1,4.42,5.57c1.52-3.13,4.2-5,6.21-7.41a6.9,6.9,0,0,0,1.87-4.67C76.46,58,80.59,52.84,86.27,48.5c6.31-4.81,13.53-8.08,20.35-12,5.85-3.41,11.57-7,16.49-11.73A41.12,41.12,0,0,0,135.8.39c0-.1.15-.18.23-.28.78,1.2,1.5,4.95,1.55,8,.17,12.42-4.71,22.32-14.67,29.78-6.42,4.8-12.86,9.56-19.93,13.39a1.84,1.84,0,0,0-.75,1c12.34-6.12,24.62-12.31,33.73-23.91A18.58,18.58,0,0,1,133.83,37C130,44.8,122.71,48.4,115.62,52.28c-3.31,1.81-6.73,3.45-10.09,5.16a7.45,7.45,0,0,0-1.76,1.16,95.93,95.93,0,0,0,15.81-6.21c5.11-2.4,9.88-5.29,13.74-9.62.44,2.26-.79,5.6-2.63,8.24-2.92,4.18-7.16,6.35-11.75,8-5.16,1.88-10.41,3.49-15.72,4.9a16.18,16.18,0,0,0-1.78.75c9.19-.69,17.52-2.44,25.58-7-1.52,4.26-4.38,6.6-7.69,8.47-4.31,2.43-9.17,2.43-13.91,2.9-.74.07-1.63-.3-2.15.68a31.73,31.73,0,0,0,13.63-.3c-.68,1.67-2,2.31-3,3.17-6,5.1-12.41,9.5-20.37,11a20.84,20.84,0,0,1-9.65-.14,2.55,2.55,0,0,0-2.8.7c-3,2.82-5.4,5.89-5.48,10.22-.08,4,1.89,7,4.62,9.71.24.23.55.39.49.89a8.35,8.35,0,0,1-3.48-1.13A43.45,43.45,0,0,1,55.74,84.25c-.33-.58-.41-1.22-1.55-.92C47.93,85,42,83.69,36.24,81a59.42,59.42,0,0,1-14.06-9.72c-.41-.36-1.2-.71-.81-1.4s1,0,1.45,0A24.36,24.36,0,0,0,34.25,69.25Z"/><path class="cls-1" d="M56.23,90.2c2,2.27,3.7,4.61,5.76,6.63a45.23,45.23,0,0,0,25,12.73c5,.81,10.07.57,15,2,10.2,3,16.9,9.34,19.48,19.79a2,2,0,0,1,0,1.37c-1-.19-1-1.2-1.29-1.84-3.42-6.84-9.44-10.14-16.39-12.24-5.42-1.64-11-2.19-16.57-3.22C78.06,113.72,69.92,110,63.47,103a36.41,36.41,0,0,1-7.33-12.17C56.08,90.72,56.19,90.5,56.23,90.2Z"/><path class="cls-1" d="M64.29,106.29a51.84,51.84,0,0,0,9.25,7.11c5.45,3.16,11.42,4.84,17.54,6.16a51.19,51.19,0,0,1,17.35,6.68,16.36,16.36,0,0,1,6.54,7.12,51.46,51.46,0,0,0-10-6c-5.23-2.15-10.71-3.38-16.18-4.7-8.42-2-15.92-5.82-21.94-12.18-1.1-1.17-2-2.51-3-3.77Z"/><path class="cls-1" d="M130.25,147.62c-1.51-8.34-3.58-16.42-8.09-23.7a31.07,31.07,0,0,0-15.88-13.25c-.67-.25-1.32-.56-2.08-.88,2.6-.42,6.56.47,10.26,2.26,8.66,4.19,13.17,11.46,15.11,20.54A42.22,42.22,0,0,1,130.25,147.62Z"/><path class="cls-1" d="M67.26,69.73c-1.37-1.09-4-1-3.55-3.92C65.44,66.74,67,67.67,67.26,69.73Z"/><path class="cls-1" d="M70.37,69.59c.39-2.12,1.84-2.8,3.5-3.46C74.2,68.8,71.88,68.68,70.37,69.59Z"/></g></g></svg>